<svg height="512pt" viewBox="-14 0 512 512" width="512pt" xmlns="http://www.w3.org/2000/svg"><path d="m297.691406 331.269531c12.640625-21.164062 19.320313-45.433593 19.320313-70.183593 0-75.582032-61.488281-137.070313-137.070313-137.070313-75.578125 0-137.066406 61.488281-137.066406 137.070313 0 24.75 6.679688 49.019531 19.316406 70.183593 1.804688 3.019531 5.066406 4.871094 8.585938 4.871094h218.328125c3.519531 0 6.78125-1.851563 8.585937-4.871094zm-221.078125-15.128906c-9.003906-16.871094-13.738281-35.789063-13.738281-55.054687 0-64.554688 52.515625-117.070313 117.066406-117.070313 64.550782 0 117.070313 52.515625 117.070313 117.070313 0 19.265624-4.734375 38.183593-13.738281 55.054687zm0 0"/><path d="m222.300781 178.734375c-4.085937-2.035156-9.027343-1.050781-12.019531 2.398437l-57.367188 66.128907c-6.652343 7.667969-9.320312 17.773437-7.316406 27.726562 2.003906 9.949219 8.371094 18.238281 17.472656 22.734375 4.570313 2.261719 9.488282 3.390625 14.40625 3.390625 4.824219 0 9.652344-1.089843 14.15625-3.265625 9.097657-4.398437 15.527344-12.585937 17.644532-22.464844l18.335937-85.605468c.957031-4.460938-1.230469-9.003906-5.3125-11.042969zm-32.582031 92.457031c-.8125 3.804688-3.289062 6.957032-6.789062 8.648438-3.503907 1.695312-7.511719 1.675781-11-.046875-3.5-1.730469-5.953126-4.921875-6.726563-8.753907-.769531-3.832031.257813-7.722656 2.816406-10.675781l31.894531-36.761719zm0 0"/><path d="m457.285156 165.707031c-13.675781 0-25.058594 9.980469-27.261718 23.039063l-45.367188 43.925781h-27.019531c-7.972657-50.023437-36.621094-93.242187-76.894531-120.574219v-58.109375c0-5.519531-4.476563-10-10-10h-28.597657v-33.988281c0-5.523438-4.480469-10-10-10-5.523437 0-10 4.476562-10 10v33.988281h-84.621093v-33.988281c0-5.523438-4.476563-10-10-10-5.523438 0-10 4.476562-10 10v33.988281h-28.191407c-5.519531 0-10 4.480469-10 10v57.976563c-47.832031 32.375-79.332031 87.136718-79.332031 149.121094 0 29.703124 7.402344 59.15625 21.402344 85.167968 2.617187 4.863282 8.683594 6.6875 13.542968 4.066406 4.863282-2.617187 6.6875-8.683593 4.066407-13.546874-12.4375-23.109376-19.011719-49.28125-19.011719-75.6875 0-71.582032 47.265625-132.328126 112.226562-152.675782 11.980469-3.734375 24.433594-6.121094 36.964844-6.898437 12.683594-.792969 25.378906-.1875 37.910156 1.945312 6.988282 1.1875 13.894532 2.871094 20.660157 4.988281 59.710937 18.746094 104.445312 71.632813 111.222656 135.683594 1.355469 12.65625 1.175781 25.5-.5 38.117188-8.261719 62.203125-52.398437 113.230468-110.871094 131.523437-.140625.046875-.285156.089844-.425781.132813-3.28125 1.015625-6.609375 1.921875-9.976562 2.730468-16.238282 3.875-33.144532 5.261719-49.792969 3.902344-16.460938-1.347656-32.726563-5.085937-48.011719-11.382812-8.582031-3.535156-16.886719-7.765625-24.734375-12.726563-3.078125-1.949219-6.976563-2.0625-10.167969-.304687-3.191406 1.757812-5.171875 5.113281-5.171875 8.757812v63.269532c0 5.523437 4.476563 10 10 10h28.1875v23.851562c0 5.523438 4.480469 10 10 10 5.523438 0 10-4.476562 10-10v-23.851562h84.621094v23.851562c0 5.523438 4.476563 10 10 10s10-4.476562 10-10v-23.851562h28.601563c5.519531 0 10-4.476563 10-10v-58.078126c39.144531-26.566406 67.3125-68.144531 76.175781-116.390624h27.761719l45.34375 43.589843c2.214843 13.046875 13.59375 23.015625 27.261718 23.015625 15.25 0 27.65625-12.40625 27.65625-27.65625v-139.265625c0-15.25-12.40625-27.65625-27.65625-27.65625zm-357.953125-65.539062v-36.179688h161.410157v36.273438c-10.042969-5.054688-20.523438-9.121094-31.296876-12.195313-12.589843-3.609375-25.53125-5.742187-38.59375-6.589844-12.789062-.824218-25.757812-.214843-38.417968 1.769532-7.402344 1.160156-14.730469 2.742187-21.933594 4.800781-10.726562 3.058594-21.164062 7.101563-31.167969 12.121094zm161.410157 321.738281v36.242188h-161.410157v-36.144532c.867188.433594 1.746094.847656 2.625 1.269532 15.417969 7.417968 31.886719 12.613281 48.773438 15.375 16.785156 2.746093 33.933593 3.097656 50.820312 1.078124 9.378907-1.117187 18.675781-2.992187 27.757813-5.585937 10.824218-3.078125 21.347656-7.160156 31.433594-12.234375zm168.886718-168.90625h-30.914062v-6.101562l30.914062-29.933594zm-30.914062 20h30.914062v36.144531l-30.914062-29.71875zm-39.246094.222656c.457031-6.839844.539062-13.707031.222656-20.550781h19.023438v10.269531c0 .019532-.003906.039063-.003906.058594s.003906.039062.003906.058594v10.621094h-19.273438c.011719-.152344.015625-.308594.027344-.457032zm105.472656 59.40625c0 4.222656-3.433594 7.65625-7.65625 7.65625-4.21875 0-7.652344-3.433594-7.652344-7.65625v-139.265625c0-4.222656 3.433594-7.65625 7.652344-7.65625 4.222656 0 7.65625 3.4375 7.65625 7.65625zm0 0"/><path d="m66.039062 374.378906c-1.609374-3.863281-5.578124-6.386718-9.769531-6.160156-4.160156.226562-7.820312 3.097656-9.027343 7.082031-1.214844 3.988281.246093 8.449219 3.605468 10.933594 3.261719 2.410156 7.78125 2.605469 11.230469.460937 4.097656-2.546874 5.824219-7.851562 3.960937-12.316406zm0 0"/></svg>