<svg width="48" height="48" xmlns="http://www.w3.org/2000/svg">

 <g>
  <title>background</title>
  <rect fill="none" id="canvas_background" height="402" width="582" y="-1" x="-1"/>
 </g>
 <g>
  <title>Layer 1</title>
  <path fill="#ffffff" id="svg_2" d="m41.115,20.33c-0.902,-10.508 -9.325,-18.852 -19.867,-19.649c6.77,3.647 11.373,10.798 11.373,19.026c0,0.211 -0.026,0.414 -0.032,0.623l-7.793,0l11.563,13.779l11.564,-13.779l-6.808,0z"/>
  <path fill="#ffffff" id="svg_3" d="m15.155,28.293c0,-0.234 0.026,-0.461 0.034,-0.692l8.015,0l-11.562,-13.779l-11.565,13.779l6.579,0c0.872,10.54 9.307,18.921 19.87,19.719c-6.769,-3.649 -11.371,-10.799 -11.371,-19.027z"/>
 </g>
</svg>